<svg xmlns="http://www.w3.org/2000/svg" version="1.1" xmlns:xlink="http://www.w3.org/1999/xlink" xmlns:svgjs="http://svgjs.dev/svgjs" width="1000" height="1000" viewBox="0 0 1000 1000"><rect width="1000" height="1000" fill="#000000"></rect><g transform="matrix(0.7,0,0,0.7,149.57575757575756,282.1265587044535)"><svg viewBox="0 0 396 247" data-background-color="#f8f8f8" preserveAspectRatio="xMidYMid meet" height="623" width="1000" xmlns="http://www.w3.org/2000/svg" xmlns:xlink="http://www.w3.org/1999/xlink"><g id="tight-bounds" transform="matrix(1,0,0,1,0.2400000000000091,-0.09999999999999432)"><svg viewBox="0 0 395.52 247.2" height="247.2" width="395.52"><g><svg></svg></g><g><svg viewBox="0 0 395.52 247.2" height="247.2" width="395.52"><g transform="matrix(1,0,0,1,39.55199999999999,92.37308463082928)"><svg viewBox="0 0 316.416 62.45383073834144" height="62.45383073834144" width="316.416"><g><svg viewBox="0 0 316.416 62.45383073834144" height="62.45383073834144" width="316.416"><g><svg viewBox="0 0 316.416 62.45383073834144" height="62.45383073834144" width="316.416"><g><svg viewBox="0 0 316.416 62.45383073834144" height="62.45383073834144" width="316.416"><g><svg viewBox="0 0 316.416 62.45383073834144" height="62.45383073834144" width="316.416"><g><svg viewBox="0 0 316.416 35.6839977388355" height="35.6839977388355" width="316.416"><g transform="matrix(1,0,0,1,0,0)"><svg width="316.416" viewBox="2 -38.400001525878906 345.489990234375 38.96000289916992" height="35.6839977388355" data-palette-color="#61777f"><path d="M30.03-28.27L30.03-28.27Q30.03-26.37 29.36-24.98 28.69-23.58 27.69-22.58L27.69-22.58Q25.9-20.85 23.24-19.85L23.24-19.85Q27.54-19.02 29.54-17.29L29.54-17.29Q32.28-14.89 32.28-10.16L32.28-10.16Q32.28-5.91 29-3.1L29-3.1Q25.42 0 18.95 0L18.95 0 2 0 2-2.08 5.71-2.64 5.71-34.18 2-34.74 2-36.82 18.29-36.82Q24.05-36.82 27.12-34.47L27.12-34.47Q30.03-32.28 30.03-28.27ZM18.41-18.04L10.3-18.04 10.3-2.93 17.21-2.93Q25.32-2.93 27.03-7.35L27.03-7.35Q27.56-8.74 27.56-10.39 27.56-12.04 26.99-13.42 26.42-14.79 25.27-15.82L25.27-15.82Q22.78-18.04 18.41-18.04L18.41-18.04ZM17.72-33.86L10.3-33.86 10.3-20.7 17.26-20.7Q22.44-20.7 24.49-24.22L24.49-24.22Q25.27-25.54 25.27-27.59L25.27-27.59Q25.27-30.86 23.46-32.36 21.66-33.86 17.72-33.86L17.72-33.86ZM35.72-34.74L35.72-36.82 47.68-36.82 47.68-34.74 43.94-34.18 43.94-20.24 64.33-20.24 64.33-34.18 60.62-34.74 60.62-36.82 72.58-36.82 72.58-34.74 68.89-34.18 68.89-2.64 72.58-2.08 72.58 0 60.62 0 60.62-2.08 64.33-2.64 64.33-17.31 43.94-17.31 43.94-2.64 47.68-2.08 47.68 0 35.72 0 35.72-2.08 39.43-2.64 39.43-34.18 35.72-34.74ZM100.83 0L100.83-2.08 104.19-2.64 100.34-12.13 85.69-12.13 81.86-2.64 85.3-2.08 85.3 0 74.82 0 74.82-2.08 78.68-2.64 91.5-34.33 90.47-36.74 94.43-38.4 109.03-2.64 112.96-2.08 112.96 0 100.83 0ZM93.04-30.76L86.84-15.09 99.26-15.09 93.04-30.76ZM113.59-34.18L124.82-6.03 136-34.18 132.37-34.74 132.37-36.82 141.98-36.82 141.98-34.74 139.23-34.28 125.63 0 122.99 0 108.95-34.18 106.05-34.74 106.05-36.82 117.35-36.82 117.35-34.74 113.59-34.18ZM140.91-34.74L140.91-36.82 154.16-36.82 154.16-34.74 149.94-34.18 158.83-17.94 166.45-34.18 162.42-34.74 162.42-36.82 173.74-36.82 173.74-34.74 169.99-34.28 160.37-14.97 160.37-2.64 164.61-2.08 164.61 0 151.65 0 151.65-2.08 155.82-2.64 155.82-14.94 144.25-34.18 140.91-34.74ZM196.96 0L196.96-2.08 200.33-2.64 196.47-12.13 181.82-12.13 177.99-2.64 181.43-2.08 181.43 0 170.96 0 170.96-2.08 174.82-2.64 187.63-34.33 186.61-36.74 190.56-38.4 205.16-2.64 209.09-2.08 209.09 0 196.96 0ZM189.17-30.76L182.97-15.09 195.4-15.09 189.17-30.76ZM257.94 0L234.31-29.74 234.31-2.64 238.02-2.08 238.02 0 227.72 0 227.72-2.08 231.5-2.64 231.5-34.18 227.72-34.74 227.72-36.82 234.46-36.82 258.11-7.08 258.11-34.18 254.43-34.74 254.43-36.82 264.66-36.82 264.66-34.74 260.97-34.18 260.97 0 257.94 0ZM291.53-13.94L291.53-16.58 305.96-16.58 305.96-13.94 304.59-13.94Q303.86-13.94 303.48-13.71 303.11-13.48 303.11-12.84L303.11-12.84 303.11-2.29Q301.35-2.29 299.2-1.56L299.2-1.56 296.07-0.54Q292.58 0.56 288.54 0.56 284.5 0.56 280.9-0.89 277.3-2.34 274.76-4.86 272.22-7.37 270.84-10.77 269.46-14.16 269.46-17.59 269.46-21.02 270.18-23.63 270.9-26.25 272.2-28.39 273.49-30.54 275.29-32.21 277.08-33.89 279.23-35.03L279.23-35.03Q283.65-37.38 288.85-37.38L288.85-37.38Q296.88-37.38 301.59-34.89L301.59-34.89 301.03-28.86 299.42-28.86Q299.42-31.1 296.64-32.69L296.64-32.69Q293.56-34.45 288.73-34.45L288.73-34.45Q282.45-34.45 278.3-29.93L278.3-29.93Q274.25-25.54 274.25-19.26L274.25-19.26Q274.25-12.38 278.06-7.54L278.06-7.54Q282.16-2.37 289.12-2.37L289.12-2.37Q296.78-2.37 298.15-5.66L298.15-5.66Q298.56-6.69 298.56-7.89L298.56-7.89 298.56-12.84Q298.56-13.5 298.19-13.72 297.81-13.94 297.17-13.94L297.17-13.94 291.53-13.94ZM315.47-4.74Q313.09-7.2 311.85-10.56 310.62-13.92 310.62-17.35 310.62-20.78 311.31-23.41 311.99-26.05 313.2-28.22 314.41-30.4 316.1-32.1 317.8-33.81 319.83-34.99L319.83-34.99Q323.95-37.38 328.66-37.38 333.38-37.38 336.84-36 340.31-34.62 342.68-32.2L342.68-32.2Q347.49-27.29 347.49-19.31L347.49-19.31Q347.49-10.42 342.09-4.81L342.09-4.81Q339.6-2.22 336.29-0.83 332.99 0.56 328.9 0.56 324.81 0.56 321.33-0.85 317.85-2.27 315.47-4.74ZM319.04-29.93Q317.26-27.86 316.3-25.1 315.33-22.34 315.33-19.7 315.33-17.07 315.72-14.97 316.12-12.87 316.88-11 317.65-9.13 318.81-7.54 319.97-5.96 321.51-4.81L321.51-4.81Q324.78-2.37 329.23-2.37L329.23-2.37Q335.3-2.37 339.11-6.49L339.11-6.49Q342.85-10.55 342.85-17.07L342.85-17.07Q342.85-24.24 339.6-29L339.6-29Q335.89-34.45 328.76-34.45L328.76-34.45Q322.88-34.45 319.04-29.93L319.04-29.93Z" opacity="1" transform="matrix(1,0,0,1,0,0)" fill="#ffffff" class="undefined-text-0" data-fill-palette-color="primary" id="text-0"></path></svg></g></svg></g><g transform="matrix(1,0,0,1,0,44.108133189028834)"><svg viewBox="0 0 316.416 18.34569754931261" height="18.34569754931261" width="316.416"><g transform="matrix(1,0,0,1,0,0)"><svg width="316.416" viewBox="-0.3500000238418579 -39 836.4199829101562 48.5" height="18.34569754931261" data-palette-color="#000000"><path d="M9.75-32.55L17.95-17.25 26.3-32.55 22.25-33.6 22.25-36 34.1-36 34.1-33.6 30-32.55 19.95-14.1 19.95-3.45 24.65-2.4 24.65 0 9.75 0 9.75-2.4 14.45-3.45 14.45-13.3 3.8-32.55-0.35-33.6-0.35-36 13.95-36 13.95-33.6 9.75-32.55ZM57.05-13.65L57.05-13.65Q57.05-10.45 56.1-7.55 55.15-4.65 53.4-2.75L53.4-2.75Q51.85-1.05 49.6-0.28 47.35 0.5 44.45 0.5L44.45 0.5Q41.6 0.5 39.37-0.28 37.15-1.05 35.6-2.7L35.6-2.7Q33.9-4.55 32.97-7.3 32.05-10.05 32.05-13.25L32.05-13.25Q32.05-16.5 33-19.43 33.95-22.35 35.7-24.25L35.7-24.25Q37.35-25.95 39.52-26.73 41.7-27.5 44.6-27.5L44.6-27.5Q47.45-27.5 49.7-26.73 51.95-25.95 53.5-24.3L53.5-24.3Q55.25-22.45 56.15-19.65 57.05-16.85 57.05-13.65ZM38.45-10.75L38.45-10.75Q38.65-8.4 39.35-6.75 40.05-5.1 41.15-4.1L41.15-4.1Q42.25-3.3 43.42-3 44.6-2.7 46.05-3L46.05-3Q48.9-3.85 50.05-7.45L50.05-7.45Q50.65-9.4 50.8-11.65 50.95-13.9 50.65-16.3L50.65-16.3Q50.45-18.6 49.75-20.28 49.05-21.95 47.95-22.9L47.95-22.9Q46.9-23.75 45.7-24.03 44.5-24.3 43-24L43-24Q40.15-23.15 39.1-19.55L39.1-19.55Q37.9-15.65 38.45-10.75ZM60.55-27L69.25-27 69.25-13.1Q69.25-9.9 69.42-8.28 69.6-6.65 70-5.75L70-5.75Q70.5-4.55 71.55-3.93 72.6-3.3 73.85-3.3L73.85-3.3Q75.2-3.3 76.4-3.8 77.6-4.3 78.55-5.15L78.55-5.15Q80.6-7 80.8-10.9L80.8-10.9 80.8-23.75 76.45-24.7 76.45-27 86.15-27 86.15-3.25 90-2.3 90 0 81.75 0.5 81.2-5 81-5Q79.55-2.45 77.05-0.98 74.55 0.5 71.7 0.5L71.7 0.5Q69.8 0.5 68.22-0.23 66.65-0.95 65.75-2.2L65.75-2.2Q64.8-3.6 64.35-6.15 63.9-8.7 63.9-12.95L63.9-12.95 63.9-23.75 60.55-24.7 60.55-27ZM107.89-23.85L107.89-23.85Q107.74-23.95 107.57-24 107.39-24.05 107.19-24.05L107.19-24.05Q106.64-24.05 105.94-23.45 105.24-22.85 104.62-21.95 103.99-21.05 103.54-20L103.54-20Q102.84-18.3 102.44-16.35 102.04-14.4 102.04-12.1L102.04-12.1 102.04-3.25 107.44-2.3 107.44 0 92.84 0 92.84-2.3 96.69-3.25 96.69-24 92.84-24.95 92.84-27 100.54-27 101.64-20.4 101.84-20.4Q102.99-23.8 104.94-25.65 106.89-27.5 109.24-27.5L109.24-27.5Q111.19-27.5 112.49-26.28 113.79-25.05 113.79-23L113.79-23Q113.79-21.5 112.97-20.5 112.14-19.5 110.74-19.5L110.74-19.5Q109.19-19.5 108.42-20.38 107.64-21.25 107.64-22.5L107.64-22.5Q107.64-22.8 107.67-23.05 107.69-23.3 107.89-23.85ZM144.24-33.55L144.24-33.55Q141.99-33.55 140.26-32.77 138.54-32 137.39-30.45L137.39-30.45Q135.94-28.5 135.06-25.4 134.19-22.3 134.19-18.6L134.19-18.6Q134.19-15.05 134.94-11.95 135.69-8.85 137.04-6.75L137.04-6.75Q138.29-4.8 140.19-3.88 142.09-2.95 144.84-2.95L144.84-2.95Q153.64-2.95 155.09-11.4L155.09-11.4 158.34-11.4Q155.99 0.5 144.14 0.5L144.14 0.5Q137.24 0.5 133.14-3.5L133.14-3.5Q130.69-5.9 129.39-9.55 128.09-13.2 128.09-17.65L128.09-17.65Q128.09-22.7 129.74-26.8 131.39-30.9 134.39-33.35L134.39-33.35Q138.19-36.5 144.44-36.5L144.44-36.5Q147.54-36.5 149.49-35.7 151.44-34.9 153.34-32.85L153.34-32.85 154.34-36 157.59-36 157.59-24.7 154.04-24.7Q153.34-29.1 150.84-31.33 148.34-33.55 144.24-33.55ZM187.19-13.65L187.19-13.65Q187.19-10.45 186.24-7.55 185.29-4.65 183.54-2.75L183.54-2.75Q181.99-1.05 179.74-0.28 177.49 0.5 174.59 0.5L174.59 0.5Q171.74 0.5 169.51-0.28 167.29-1.05 165.74-2.7L165.74-2.7Q164.04-4.55 163.11-7.3 162.19-10.05 162.19-13.25L162.19-13.25Q162.19-16.5 163.14-19.43 164.09-22.35 165.84-24.25L165.84-24.25Q167.49-25.95 169.66-26.73 171.84-27.5 174.74-27.5L174.74-27.5Q177.59-27.5 179.84-26.73 182.09-25.95 183.64-24.3L183.64-24.3Q185.39-22.45 186.29-19.65 187.19-16.85 187.19-13.65ZM168.59-10.75L168.59-10.75Q168.79-8.4 169.49-6.75 170.19-5.1 171.29-4.1L171.29-4.1Q172.39-3.3 173.56-3 174.74-2.7 176.19-3L176.19-3Q179.04-3.85 180.19-7.45L180.19-7.45Q180.79-9.4 180.94-11.65 181.09-13.9 180.79-16.3L180.79-16.3Q180.59-18.6 179.89-20.28 179.19-21.95 178.09-22.9L178.09-22.9Q177.04-23.75 175.84-24.03 174.64-24.3 173.14-24L173.14-24Q170.29-23.15 169.24-19.55L169.24-19.55Q168.04-15.65 168.59-10.75ZM191.03-2.3L194.88-3.25 194.88-23.75 191.03-24.7 191.03-27 198.73-27 199.83-22 200.03-22Q201.53-24.55 204.08-26.03 206.63-27.5 209.53-27.5L209.53-27.5Q213.68-27.5 215.68-24.8L215.68-24.8Q216.68-23.4 217.11-20.88 217.53-18.35 217.53-14.05L217.53-14.05 217.53-3.25 221.38-2.3 221.38 0 208.83 0 208.83-2.3 212.18-3.25 212.18-13.9Q212.18-17.05 212.01-18.68 211.83-20.3 211.38-21.25L211.38-21.25Q210.83-22.5 209.76-23.08 208.68-23.65 207.23-23.65L207.23-23.65Q204.48-23.65 202.48-21.9L202.48-21.9Q200.43-20 200.23-16.1L200.23-16.1 200.23-3.25 203.58-2.3 203.58 0 191.03 0 191.03-2.3ZM227.63-24.25L222.78-24.25 222.78-26.3 227.63-27 228.28-33.25 232.98-33.95 232.98-27 239.38-27 239.38-24.25 232.98-24.25 232.98-6.9Q232.98-5.2 233.03-4.58 233.08-3.95 233.23-3.55L233.23-3.55Q233.38-3.2 233.78-3.08 234.18-2.95 235.08-2.95L235.08-2.95 238.58-2.95 238.58-1.25Q235.98-0.35 234.03 0.08 232.08 0.5 230.93 0.5L230.93 0.5Q228.68 0.5 228.03-1.35L228.03-1.35Q227.83-1.95 227.73-2.9 227.63-3.85 227.63-5.7L227.63-5.7 227.63-24.25ZM256.58-23.85L256.58-23.85Q256.43-23.95 256.25-24 256.08-24.05 255.88-24.05L255.88-24.05Q255.33-24.05 254.63-23.45 253.93-22.85 253.3-21.95 252.68-21.05 252.23-20L252.23-20Q251.53-18.3 251.13-16.35 250.73-14.4 250.73-12.1L250.73-12.1 250.73-3.25 256.13-2.3 256.13 0 241.53 0 241.53-2.3 245.38-3.25 245.38-24 241.53-24.95 241.53-27 249.23-27 250.33-20.4 250.53-20.4Q251.68-23.8 253.63-25.65 255.58-27.5 257.93-27.5L257.93-27.5Q259.88-27.5 261.18-26.28 262.48-25.05 262.48-23L262.48-23Q262.48-21.5 261.65-20.5 260.83-19.5 259.43-19.5L259.43-19.5Q257.88-19.5 257.1-20.38 256.33-21.25 256.33-22.5L256.33-22.5Q256.33-22.8 256.35-23.05 256.38-23.3 256.58-23.85ZM268.53-3.25L268.53-23.75 264.68-24.7 264.68-27 273.88-27 273.88-3.25 277.73-2.3 277.73 0 264.68 0 264.68-2.3 268.53-3.25ZM267.88-34.9L267.88-34.9Q267.88-36.4 268.78-37.3 269.68-38.2 271.18-38.2L271.18-38.2Q272.73-38.2 273.63-37.3 274.53-36.4 274.53-34.9L274.53-34.9Q274.53-33.45 273.65-32.55 272.78-31.65 271.18-31.65L271.18-31.65Q269.63-31.65 268.75-32.52 267.88-33.4 267.88-34.9ZM306.97-13.75L306.97-13.75Q306.97-10.5 306.02-7.6 305.07-4.7 303.37-2.75L303.37-2.75Q300.57 0.5 295.32 0.5L295.32 0.5Q292.77 0.5 290.77-0.68 288.77-1.85 287.22-5.05L287.22-5.05 285.72 0 282.87 0 282.87-35.75 279.02-36.7 279.02-39 288.22-39 288.22-24.1Q289.72-26 291.57-26.75 293.42-27.5 295.72-27.5L295.72-27.5Q298.27-27.5 300.35-26.75 302.42-26 303.72-24.35L303.72-24.35Q305.27-22.45 306.12-19.7 306.97-16.95 306.97-13.75ZM288.22-13.65L288.22-13.65Q288.22-10.6 288.7-8.47 289.17-6.35 289.97-5L289.97-5Q290.77-3.75 291.92-3.05 293.07-2.35 294.87-2.35L294.87-2.35Q296.52-2.35 297.67-3 298.82-3.65 299.57-4.7L299.57-4.7Q300.42-6 300.82-8.15 301.22-10.3 301.22-13.15L301.22-13.15Q301.22-16.1 300.8-18.35 300.37-20.6 299.57-22L299.57-22Q298.82-23.3 297.72-23.98 296.62-24.65 294.82-24.65L294.82-24.65Q293.22-24.65 291.97-24.1 290.72-23.55 289.97-22.35L289.97-22.35Q289.22-21 288.72-18.82 288.22-16.65 288.22-13.65ZM310.52-27L319.22-27 319.22-13.1Q319.22-9.9 319.4-8.28 319.57-6.65 319.97-5.75L319.97-5.75Q320.47-4.55 321.52-3.93 322.57-3.3 323.82-3.3L323.82-3.3Q325.17-3.3 326.37-3.8 327.57-4.3 328.52-5.15L328.52-5.15Q330.57-7 330.77-10.9L330.77-10.9 330.77-23.75 326.42-24.7 326.42-27 336.12-27 336.12-3.25 339.97-2.3 339.97 0 331.72 0.5 331.17-5 330.97-5Q329.52-2.45 327.02-0.98 324.52 0.5 321.67 0.5L321.67 0.5Q319.77 0.5 318.19-0.23 316.62-0.95 315.72-2.2L315.72-2.2Q314.77-3.6 314.32-6.15 313.87-8.7 313.87-12.95L313.87-12.95 313.87-23.75 310.52-24.7 310.52-27ZM346.37-24.25L341.52-24.25 341.52-26.3 346.37-27 347.02-33.25 351.72-33.95 351.72-27 358.12-27 358.12-24.25 351.72-24.25 351.72-6.9Q351.72-5.2 351.77-4.58 351.82-3.95 351.97-3.55L351.97-3.55Q352.12-3.2 352.52-3.08 352.92-2.95 353.82-2.95L353.82-2.95 357.32-2.95 357.32-1.25Q354.72-0.35 352.77 0.08 350.82 0.5 349.67 0.5L349.67 0.5Q347.42 0.5 346.77-1.35L346.77-1.35Q346.57-1.95 346.47-2.9 346.37-3.85 346.37-5.7L346.37-5.7 346.37-24.25ZM364.12-3.25L364.12-23.75 360.26-24.7 360.26-27 369.46-27 369.46-3.25 373.31-2.3 373.31 0 360.26 0 360.26-2.3 364.12-3.25ZM363.46-34.9L363.46-34.9Q363.46-36.4 364.37-37.3 365.26-38.2 366.76-38.2L366.76-38.2Q368.31-38.2 369.21-37.3 370.12-36.4 370.12-34.9L370.12-34.9Q370.12-33.45 369.24-32.55 368.37-31.65 366.76-31.65L366.76-31.65Q365.21-31.65 364.34-32.52 363.46-33.4 363.46-34.9ZM401.61-13.65L401.61-13.65Q401.61-10.45 400.66-7.55 399.71-4.65 397.96-2.75L397.96-2.75Q396.41-1.05 394.16-0.28 391.91 0.5 389.01 0.5L389.01 0.5Q386.16 0.5 383.94-0.28 381.71-1.05 380.16-2.7L380.16-2.7Q378.46-4.55 377.54-7.3 376.61-10.05 376.61-13.25L376.61-13.25Q376.61-16.5 377.56-19.43 378.51-22.35 380.26-24.25L380.26-24.25Q381.91-25.95 384.09-26.73 386.26-27.5 389.16-27.5L389.16-27.5Q392.01-27.5 394.26-26.73 396.51-25.95 398.06-24.3L398.06-24.3Q399.81-22.45 400.71-19.65 401.61-16.85 401.61-13.65ZM383.01-10.75L383.01-10.75Q383.21-8.4 383.91-6.75 384.61-5.1 385.71-4.1L385.71-4.1Q386.81-3.3 387.99-3 389.16-2.7 390.61-3L390.61-3Q393.46-3.85 394.61-7.45L394.61-7.45Q395.21-9.4 395.36-11.65 395.51-13.9 395.21-16.3L395.21-16.3Q395.01-18.6 394.31-20.28 393.61-21.95 392.51-22.9L392.51-22.9Q391.46-23.75 390.26-24.03 389.06-24.3 387.56-24L387.56-24Q384.71-23.15 383.66-19.55L383.66-19.55Q382.46-15.65 383.01-10.75ZM405.46-2.3L409.31-3.25 409.31-23.75 405.46-24.7 405.46-27 413.16-27 414.26-22 414.46-22Q415.96-24.55 418.51-26.03 421.06-27.5 423.96-27.5L423.96-27.5Q428.11-27.5 430.11-24.8L430.11-24.8Q431.11-23.4 431.53-20.88 431.96-18.35 431.96-14.05L431.96-14.05 431.96-3.25 435.81-2.3 435.81 0 423.26 0 423.26-2.3 426.61-3.25 426.61-13.9Q426.61-17.05 426.44-18.68 426.26-20.3 425.81-21.25L425.81-21.25Q425.26-22.5 424.19-23.08 423.11-23.65 421.66-23.65L421.66-23.65Q418.91-23.65 416.91-21.9L416.91-21.9Q414.86-20 414.66-16.1L414.66-16.1 414.66-3.25 418.01-2.3 418.01 0 405.46 0 405.46-2.3ZM439.46-2.65L439.46-2.65Q439.46-4.25 440.38-5.2 441.31-6.15 442.86-6.15L442.86-6.15Q444.41-6.15 445.36-5.18 446.31-4.2 446.31-2.65L446.31-2.65Q446.31-1.1 445.38-0.18 444.46 0.75 442.86 0.75L442.86 0.75Q441.26 0.75 440.36-0.13 439.46-1 439.46-2.65ZM463-2.3L466.85-3.25 466.85-23.75 463-24.7 463-27 470.7-27 471.8-22 472-22Q473.45-24.5 475.88-26 478.3-27.5 481.05-27.5L481.05-27.5Q483.1-27.5 484.7-26.73 486.3-25.95 487.05-24.8L487.05-24.8Q487.85-23.55 488.35-21.5L488.35-21.5Q489.95-24.3 492.5-25.9 495.05-27.5 497.95-27.5L497.95-27.5Q499.95-27.5 501.55-26.73 503.15-25.95 504-24.6L504-24.6Q504.6-23.65 504.95-22.15 505.3-20.65 505.45-18.28 505.6-15.9 505.6-12.25L505.6-12.25 505.6-3.25 509.45-2.3 509.45 0 496.9 0 496.9-2.3 500.25-3.25 500.25-13.9Q500.25-17.15 500.08-18.75 499.9-20.35 499.45-21.25L499.45-21.25Q498.9-22.45 497.9-23.03 496.9-23.6 495.65-23.6L495.65-23.6Q494.4-23.6 493.25-23.15 492.1-22.7 491.15-21.85L491.15-21.85Q490.05-20.85 489.53-19.5 489-18.15 488.9-16.1L488.9-16.1 488.9-3.25 492.25-2.3 492.25 0 480.2 0 480.2-2.3 483.55-3.25 483.55-13.9Q483.55-17.15 483.38-18.75 483.2-20.35 482.75-21.25L482.75-21.25Q482.2-22.45 481.2-23.03 480.2-23.6 478.95-23.6L478.95-23.6Q477.7-23.6 476.55-23.15 475.4-22.7 474.45-21.85L474.45-21.85Q473.35-20.85 472.83-19.5 472.3-18.15 472.2-16.1L472.2-16.1 472.2-3.25 475.55-2.3 475.55 0 463 0 463-2.3ZM512.15-5.85L512.15-5.85Q512.15-9.85 515.85-12.1 519.55-14.35 527.9-15.6L527.9-15.6Q527.7-18.4 527.35-19.95 527-21.5 526.45-22.5L526.45-22.5Q525.8-23.75 524.65-24.4 523.5-25.05 522.05-25.05L522.05-25.05Q520.75-25.05 519.7-24.58 518.65-24.1 518.3-23.3L518.3-23.3Q519-22.85 519.3-22.08 519.6-21.3 519.6-20.65L519.6-20.65Q519.6-19.4 518.7-18.6 517.8-17.8 516.45-17.8L516.45-17.8Q515.15-17.8 514.33-18.68 513.5-19.55 513.5-21L513.5-21Q513.5-23.1 514.95-24.55 516.4-26 518.65-26.75 520.9-27.5 523.15-27.5L523.15-27.5Q525.3-27.5 527.08-26.85 528.85-26.2 530.05-25.1L530.05-25.1Q533.4-21.85 533.4-14.05L533.4-14.05 533.4-7.05Q533.4-4.6 533.73-3.65 534.05-2.7 535.15-2.7L535.15-2.7 537.4-2.7 537.4-0.95Q533.5 0.5 531.35 0.5L531.35 0.5Q529.8 0.5 529.25-0.63 528.7-1.75 528.7-4.95L528.7-4.95 528.5-4.95Q526.95-2.4 524.4-0.95 521.85 0.5 518.9 0.5L518.9 0.5Q515.75 0.5 513.95-1.2 512.15-2.9 512.15-5.85ZM521.35-2.65L521.35-2.65Q522.6-2.65 524.05-3.38 525.5-4.1 526.5-5.35L526.5-5.35Q527.25-6.25 527.65-7.6 528.05-8.95 528.05-10.8L528.05-10.8Q528.05-11.55 528-12.35 527.95-13.15 527.85-13.9L527.85-13.9Q524-13.1 521.83-12.2 519.65-11.3 518.73-10.05 517.8-8.8 517.8-7L517.8-7Q517.8-4.85 518.8-3.75 519.8-2.65 521.35-2.65ZM539.15-2.3L543-3.25 543-23.75 539.15-24.7 539.15-27 546.85-27 547.95-22 548.15-22Q549.65-24.55 552.2-26.03 554.75-27.5 557.65-27.5L557.65-27.5Q561.8-27.5 563.8-24.8L563.8-24.8Q564.8-23.4 565.22-20.88 565.65-18.35 565.65-14.05L565.65-14.05 565.65-3.25 569.5-2.3 569.5 0 556.95 0 556.95-2.3 560.3-3.25 560.3-13.9Q560.3-17.05 560.12-18.68 559.95-20.3 559.5-21.25L559.5-21.25Q558.95-22.5 557.87-23.08 556.8-23.65 555.35-23.65L555.35-23.65Q552.6-23.65 550.6-21.9L550.6-21.9Q548.55-20 548.35-16.1L548.35-16.1 548.35-3.25 551.7-2.3 551.7 0 539.15 0 539.15-2.3ZM598.29-24.7L595.24-23.75 587.04-1.2Q585.54 2.65 584.32 5.03 583.09 7.4 581.62 8.45 580.14 9.5 577.84 9.5L577.84 9.5Q575.49 9.5 573.82 8.25 572.14 7 572.14 5.1L572.14 5.1Q572.14 3.6 573.02 2.6 573.89 1.6 575.29 1.6L575.29 1.6Q576.54 1.6 577.24 2.23 577.94 2.85 577.94 4.05L577.94 4.05Q577.94 4.65 577.59 5.38 577.24 6.1 576.54 6.45L576.54 6.45Q576.64 6.95 577.14 7.13 577.64 7.3 577.99 7.3L577.99 7.3Q578.69 7.3 579.29 6.98 579.89 6.65 580.57 5.58 581.24 4.5 582.04 2.2L582.04 2.2 582.64 0.35 572.39-23.75 569.39-24.7 569.39-27 581.09-27 581.49-24.7 577.94-23.75 584.94-4.9 585.14-4.9 591.19-23.75 588.29-24.7 588.29-27 598.29-27 598.29-24.7ZM625.99 0.55L625.99 0.55Q623.09 0.55 620.81-0.33 618.54-1.2 616.94-2.9L616.94-2.9 616.39 0 613.09 0 613.09-11.6 616.64-11.6Q616.94-6.75 619.06-4.6 621.19-2.45 625.19-2.45L625.19-2.45Q628.54-2.45 630.29-3.78 632.04-5.1 632.04-7.7L632.04-7.7Q632.04-9.85 630.96-11.25 629.89-12.65 627.86-13.75 625.84-14.85 623.04-15.95L623.04-15.95Q619.94-17.25 617.74-18.55 615.54-19.85 614.39-21.7 613.24-23.55 613.24-26.45L613.24-26.45Q613.24-31.25 616.21-33.9 619.19-36.55 624.19-36.55L624.19-36.55Q629.14-36.55 632.24-33.75L632.24-33.75 632.64-36 635.94-36 635.94-24.4 632.59-24.4Q632.59-29.15 630.81-31.38 629.04-33.6 625.24-33.6L625.24-33.6Q618.79-33.6 618.79-27.65L618.79-27.65Q618.79-25.95 619.44-24.9 620.09-23.85 621.66-22.95 623.24-22.05 626.14-20.8L626.14-20.8Q630.29-19 632.81-17.35 635.34-15.7 636.46-13.8 637.59-11.9 637.59-9.3L637.59-9.3Q637.59-6.15 636.09-3.95 634.59-1.75 631.99-0.6 629.39 0.55 625.99 0.55ZM667.29-13.65L667.29-13.65Q667.29-10.45 666.34-7.55 665.39-4.65 663.64-2.75L663.64-2.75Q662.09-1.05 659.84-0.28 657.59 0.5 654.69 0.5L654.69 0.5Q651.84 0.5 649.61-0.28 647.39-1.05 645.84-2.7L645.84-2.7Q644.14-4.55 643.21-7.3 642.29-10.05 642.29-13.25L642.29-13.25Q642.29-16.5 643.24-19.43 644.19-22.35 645.94-24.25L645.94-24.25Q647.59-25.95 649.76-26.73 651.94-27.5 654.84-27.5L654.84-27.5Q657.69-27.5 659.94-26.73 662.19-25.95 663.74-24.3L663.74-24.3Q665.49-22.45 666.39-19.65 667.29-16.85 667.29-13.65ZM648.69-10.75L648.69-10.75Q648.89-8.4 649.59-6.75 650.29-5.1 651.39-4.1L651.39-4.1Q652.49-3.3 653.66-3 654.84-2.7 656.29-3L656.29-3Q659.14-3.85 660.29-7.45L660.29-7.45Q660.89-9.4 661.04-11.65 661.19-13.9 660.89-16.3L660.89-16.3Q660.69-18.6 659.99-20.28 659.29-21.95 658.19-22.9L658.19-22.9Q657.14-23.75 655.94-24.03 654.74-24.3 653.24-24L653.24-24Q650.39-23.15 649.34-19.55L649.34-19.55Q648.14-15.65 648.69-10.75ZM670.73-2.3L674.58-3.25 674.58-35.75 670.73-36.7 670.73-39 679.93-39 679.93-3.25 683.78-2.3 683.78 0 670.73 0 670.73-2.3ZM686.48-27L695.18-27 695.18-13.1Q695.18-9.9 695.36-8.28 695.53-6.65 695.93-5.75L695.93-5.75Q696.43-4.55 697.48-3.93 698.53-3.3 699.78-3.3L699.78-3.3Q701.13-3.3 702.33-3.8 703.53-4.3 704.48-5.15L704.48-5.15Q706.53-7 706.73-10.9L706.73-10.9 706.73-23.75 702.38-24.7 702.38-27 712.08-27 712.08-3.25 715.93-2.3 715.93 0 707.68 0.5 707.13-5 706.93-5Q705.48-2.45 702.98-0.98 700.48 0.5 697.63 0.5L697.63 0.5Q695.73 0.5 694.16-0.23 692.58-0.95 691.68-2.2L691.68-2.2Q690.73-3.6 690.28-6.15 689.83-8.7 689.83-12.95L689.83-12.95 689.83-23.75 686.48-24.7 686.48-27ZM722.33-24.25L717.48-24.25 717.48-26.3 722.33-27 722.98-33.25 727.68-33.95 727.68-27 734.08-27 734.08-24.25 727.68-24.25 727.68-6.9Q727.68-5.2 727.73-4.58 727.78-3.95 727.93-3.55L727.93-3.55Q728.08-3.2 728.48-3.08 728.88-2.95 729.78-2.95L729.78-2.95 733.28-2.95 733.28-1.25Q730.68-0.35 728.73 0.08 726.78 0.5 725.63 0.5L725.63 0.5Q723.38 0.5 722.73-1.35L722.73-1.35Q722.53-1.95 722.43-2.9 722.33-3.85 722.33-5.7L722.33-5.7 722.33-24.25ZM740.08-3.25L740.08-23.75 736.23-24.7 736.23-27 745.43-27 745.43-3.25 749.28-2.3 749.28 0 736.23 0 736.23-2.3 740.08-3.25ZM739.43-34.9L739.43-34.9Q739.43-36.4 740.33-37.3 741.23-38.2 742.73-38.2L742.73-38.2Q744.28-38.2 745.18-37.3 746.08-36.4 746.08-34.9L746.08-34.9Q746.08-33.45 745.2-32.55 744.33-31.65 742.73-31.65L742.73-31.65Q741.18-31.65 740.3-32.52 739.43-33.4 739.43-34.9ZM777.57-13.65L777.57-13.65Q777.57-10.45 776.62-7.55 775.67-4.65 773.92-2.75L773.92-2.75Q772.37-1.05 770.12-0.28 767.87 0.5 764.97 0.5L764.97 0.5Q762.12 0.5 759.9-0.28 757.67-1.05 756.12-2.7L756.12-2.7Q754.42-4.55 753.5-7.3 752.57-10.05 752.57-13.25L752.57-13.25Q752.57-16.5 753.52-19.43 754.47-22.35 756.22-24.25L756.22-24.25Q757.87-25.95 760.05-26.73 762.22-27.5 765.12-27.5L765.12-27.5Q767.97-27.5 770.22-26.73 772.47-25.95 774.02-24.3L774.02-24.3Q775.77-22.45 776.67-19.65 777.57-16.85 777.57-13.65ZM758.97-10.75L758.97-10.75Q759.17-8.4 759.87-6.75 760.57-5.1 761.67-4.1L761.67-4.1Q762.77-3.3 763.95-3 765.12-2.7 766.57-3L766.57-3Q769.42-3.85 770.57-7.45L770.57-7.45Q771.17-9.4 771.32-11.65 771.47-13.9 771.17-16.3L771.17-16.3Q770.97-18.6 770.27-20.28 769.57-21.95 768.47-22.9L768.47-22.9Q767.42-23.75 766.22-24.03 765.02-24.3 763.52-24L763.52-24Q760.67-23.15 759.62-19.55L759.62-19.55Q758.42-15.65 758.97-10.75ZM781.42-2.3L785.27-3.25 785.27-23.75 781.42-24.7 781.42-27 789.12-27 790.22-22 790.42-22Q791.92-24.55 794.47-26.03 797.02-27.5 799.92-27.5L799.92-27.5Q804.07-27.5 806.07-24.8L806.07-24.8Q807.07-23.4 807.5-20.88 807.92-18.35 807.92-14.05L807.92-14.05 807.92-3.25 811.77-2.3 811.77 0 799.22 0 799.22-2.3 802.57-3.25 802.57-13.9Q802.57-17.05 802.4-18.68 802.22-20.3 801.77-21.25L801.77-21.25Q801.22-22.5 800.15-23.08 799.07-23.65 797.62-23.65L797.62-23.65Q794.87-23.65 792.87-21.9L792.87-21.9Q790.82-20 790.62-16.1L790.62-16.1 790.62-3.25 793.97-2.3 793.97 0 781.42 0 781.42-2.3ZM824.97-2.05L824.97-2.05Q827.67-2.05 829.44-3.13 831.22-4.2 831.22-6.15L831.22-6.15Q831.22-7.7 830.12-8.68 829.02-9.65 827.39-10.25 825.77-10.85 824.12-11.35L824.12-11.35Q822.07-12 820.17-12.9 818.27-13.8 817.07-15.4 815.87-17 815.87-19.55L815.87-19.55Q815.87-23.15 818.49-25.33 821.12-27.5 825.82-27.5L825.82-27.5Q830.02-27.5 832.49-25.75 834.97-24 834.97-21.05L834.97-21.05Q834.97-19.45 834.19-18.53 833.42-17.6 832.02-17.6L832.02-17.6Q830.72-17.6 829.92-18.32 829.12-19.05 829.12-20.1L829.12-20.1Q829.12-21.05 829.62-21.83 830.12-22.6 830.92-22.95L830.92-22.95Q830.17-23.95 828.99-24.45 827.82-24.95 826.02-24.95L826.02-24.95Q823.22-24.95 821.84-23.9 820.47-22.85 820.47-20.9L820.47-20.9Q820.47-19.45 821.14-18.57 821.82-17.7 823.12-17.13 824.42-16.55 826.27-15.95L826.27-15.95Q828.07-15.4 829.79-14.78 831.52-14.15 832.94-13.23 834.37-12.3 835.22-10.95 836.07-9.6 836.07-7.6L836.07-7.6Q836.07-5.05 834.59-3.23 833.12-1.4 830.57-0.45 828.02 0.5 824.77 0.5L824.77 0.5Q820.27 0.5 817.57-1.3 814.87-3.1 814.87-6.1L814.87-6.1Q814.87-7.85 815.72-8.85 816.57-9.85 818.02-9.85L818.02-9.85Q819.22-9.85 820.12-9.15 821.02-8.45 821.02-7.3L821.02-7.3Q821.02-6.35 820.47-5.5 819.92-4.65 819.22-4.25L819.22-4.25Q819.82-3.35 821.32-2.7 822.82-2.05 824.97-2.05Z" opacity="1" transform="matrix(1,0,0,1,0,0)" fill="#ffffff" class="undefined-text-1" data-fill-palette-color="secondary" id="text-1"></path></svg></g></svg></g></svg></g></svg></g></svg></g></svg></g></svg></g><g mask="url(#a682c433-338b-4f9b-8c91-9a0bac7141b2)"><g transform="matrix(4.111747620276423, 0, 0, 4.111747620276423, 132.90746834487558, 0.9999999999999858)"><svg xmlns="http://www.w3.org/2000/svg" xmlns:xlink="http://www.w3.org/1999/xlink" version="1.1" x="0" y="0" viewBox="28.897001266479492 14.987000465393066 31.54499626159668 59.634010314941406" enable-background="new 0 0 90 90" xml:space="preserve" height="59.634010314941406" width="31.54499626159668" class="icon-none" data-fill-palette-color="accent" id="none"><g fill="#c8c8c8" data-fill-palette-color="accent"><path d="M44.671 14.987c-8.698 0-15.774 7.077-15.774 15.776 0 5.492 4.74 10.338 9.454 13.237l-0.005 3.506c0 0.494 0.225 0.961 0.61 1.27l2.593 2.07-1.023 1.428c-0.216 0.279-0.339 0.627-0.339 0.994 0 0.387 0.137 0.75 0.372 1.033l1.173 1.639-1.191 1.49c-0.472 0.592-0.472 1.434 0 2.025l1.15 1.439-1.151 1.447c-0.471 0.594-0.471 1.434 0.001 2.024l1.15 1.444-1.132 1.371c-0.508 0.613-0.495 1.506 0.03 2.105l4.187 4.777c0.305 0.349 0.748 0.551 1.21 0.553l0.779 0.006c0.006 0 0.008 0 0.012 0 0.439 0 0.861-0.18 1.168-0.495l2.535-2.623c0.623-0.646 0.605-1.675-0.039-2.298-0.646-0.622-1.674-0.607-2.297 0.038l-1.717 1.772-2.483-2.834 1.077-1.304c0.059-0.071 0.08-0.155 0.125-0.233 0.028-0.045 0.051-0.088 0.074-0.137 0.06-0.131 0.103-0.26 0.125-0.398 0.017-0.086 0.023-0.17 0.025-0.26 0-0.101-0.006-0.193-0.023-0.291-0.02-0.129-0.058-0.25-0.11-0.373-0.025-0.057-0.051-0.108-0.083-0.162-0.042-0.073-0.061-0.155-0.115-0.227l-1.153-1.447 1.153-1.447c0.472-0.594 0.47-1.434-0.003-2.024l-1.147-1.44 1.147-1.438c0.455-0.568 0.475-1.369 0.051-1.961l-1.274-1.777 1.274-1.781c0.504-0.702 0.37-1.676-0.307-2.215l-3.184-2.543 0.005-3.648c0-0.586-0.312-1.126-0.823-1.416-3.981-2.264-8.633-6.476-8.633-10.898 0-6.907 5.619-12.526 12.524-12.526 6.905 0 12.523 5.619 12.523 12.526 0 4.41-4.666 8.628-8.661 10.898-0.509 0.29-0.823 0.829-0.823 1.413v19.397c0 0.896 0.729 1.625 1.625 1.625s1.625-0.729 1.625-1.625V44.002c4.729-2.907 9.484-7.757 9.484-13.238C60.443 22.064 53.367 14.987 44.671 14.987z" fill="#ffffff" data-fill-palette-color="accent"></path></g></svg></g></g></svg></g><defs><mask id="bc4c915d-3f8f-4d20-ba2e-172fd6eb52e6"><rect width="640" height="400" fill="white"></rect><rect width="348.05760000000004" height="79.30210163872809" fill="black" x="145.97119999999998" y="160.34894918063594" id="transform-me" transform="matrix(1,0,0,1,-122.24000000000001,-76.4)"></rect></mask><mask id="a682c433-338b-4f9b-8c91-9a0bac7141b2"><rect width="640" height="400" fill="white"></rect><rect width="348.05760000000004" height="79.30210163872809" fill="black" x="145.97119999999998" y="160.34894918063594" id="transform-me" transform="matrix(1,0,0,1,-122.24000000000001,-76.4)"></rect></mask></defs></svg><rect width="395.52" height="247.2" fill="none" stroke="none" visibility="hidden"></rect></g></svg></g></svg>